<?xml version="1.0" encoding="utf-8"?>
<!-- Generator: Adobe Illustrator 23.1.0, SVG Export Plug-In . SVG Version: 6.00 Build 0)  -->
<svg version="1.1" id="Capa_1" xmlns="http://www.w3.org/2000/svg" xmlns:xlink="http://www.w3.org/1999/xlink" x="0px" y="0px"
	 viewBox="0 0 116.3 29.8" style="enable-background:new 0 0 116.3 29.8;" xml:space="preserve">
<style type="text/css">
	.st0{fill-rule:evenodd;clip-rule:evenodd;fill:#E66728;}
	.st1{fill-rule:evenodd;clip-rule:evenodd;fill:#921E30;}
	.st2{fill-rule:evenodd;clip-rule:evenodd;fill:#FFFFFF;}
	.st3{fill:#FFFFFF;}
</style>
<g id="Symbols">
	<g id="logo">
		<g id="Group">
			<path id="Path" class="st0" d="M116.3,0H24.9c4.2,3.1,7,8,7.1,13.7c0.1,7.3-4.4,13.5-10.7,16.1h95.1V0z"/>
			<path class="st1" d="M14.9,0H0v29.8h14.9c8.3,0,14.9-6.7,14.9-14.9S23.1,0,14.9,0"/>
			<path class="st2" d="M78.4,7.9c0,0.4-0.1,0.8-0.4,1.1c-0.3,0.3-0.7,0.4-1.1,0.4c-0.4,0-0.8-0.2-1.1-0.4c-0.3-0.3-0.4-0.7-0.4-1.1
				c0-0.4,0.1-0.8,0.4-1.1c0.3-0.3,0.7-0.5,1.1-0.5c0.4,0,0.8,0.2,1.1,0.5C78.3,7.1,78.4,7.5,78.4,7.9"/>
			<path id="Shape" class="st3" d="M63.8,18.3c-0.4,0-0.8,0-1.3,0.1c-0.5,0.1-0.9,0.1-1.4,0.3c-0.4,0.1-0.8,0.3-1.1,0.6
				c-0.3,0.3-0.4,0.6-0.4,1c0,0.5,0.2,0.9,0.5,1.1s0.7,0.4,1.1,0.4c0.3,0,0.7-0.1,1-0.2c0.3-0.1,0.6-0.3,0.8-0.4
				c0.3-0.2,0.6-0.4,0.8-0.6V18.3L63.8,18.3z M64,23.7l-0.2-1.4h-0.1c-0.1,0.1-0.3,0.3-0.5,0.4c-0.2,0.2-0.4,0.4-0.7,0.6
				c-0.3,0.2-0.6,0.3-1,0.5C61.2,24,60.8,24,60.3,24c-0.4,0-0.8-0.1-1.2-0.2s-0.8-0.4-1.1-0.7c-0.3-0.3-0.6-0.7-0.8-1.1
				c-0.2-0.4-0.3-1-0.3-1.5c0-0.9,0.2-1.6,0.7-2.1s1-0.9,1.7-1.2c0.7-0.3,1.4-0.4,2.2-0.5c0.8-0.1,1.5-0.1,2.2-0.1v-0.2
				c0-0.8-0.2-1.3-0.5-1.7C63,14.2,62.5,14,61.8,14c-0.4,0-0.8,0-1.2,0.1c-0.4,0.1-0.7,0.2-1,0.3c-0.3,0.1-0.7,0.2-1,0.4L57.9,13
				c0.4-0.2,0.9-0.4,1.4-0.6c0.4-0.2,0.9-0.3,1.4-0.4c0.5-0.1,1.1-0.2,1.6-0.2c1.3,0,2.4,0.4,3.1,1.1c0.7,0.7,1.1,1.8,1.1,3.1v7.8
				L64,23.7L64,23.7z"/>
			<rect id="Rectangle" x="75.5" y="12.1" class="st2" width="2.9" height="11.7"/>
			<path class="st2" d="M95.3,7.9c0,0.4-0.2,0.8-0.4,1.1c-0.3,0.3-0.7,0.4-1.1,0.4c-0.4,0-0.8-0.2-1.1-0.4c-0.3-0.3-0.4-0.7-0.4-1.1
				c0-0.4,0.1-0.8,0.4-1.1c0.3-0.3,0.7-0.5,1.1-0.5c0.4,0,0.8,0.2,1.1,0.5C95.1,7.1,95.3,7.5,95.3,7.9"/>
			<rect x="92.3" y="12.1" class="st2" width="2.9" height="11.7"/>
			<path class="st3" d="M103.9,18.3c-0.4,0-0.8,0-1.3,0.1c-0.5,0.1-0.9,0.1-1.3,0.3c-0.4,0.1-0.8,0.3-1.1,0.6
				c-0.3,0.3-0.4,0.6-0.4,1c0,0.5,0.2,0.9,0.5,1.1s0.7,0.4,1.1,0.4c0.3,0,0.7-0.1,1-0.2c0.3-0.1,0.6-0.3,0.8-0.4
				c0.3-0.2,0.6-0.4,0.8-0.6L103.9,18.3L103.9,18.3z M104.2,23.7l-0.2-1.4h0c-0.1,0.1-0.3,0.3-0.5,0.4c-0.2,0.2-0.4,0.4-0.7,0.6
				c-0.3,0.2-0.6,0.3-1,0.5c-0.4,0.1-0.8,0.2-1.2,0.2c-0.4,0-0.8-0.1-1.2-0.2s-0.8-0.4-1.1-0.7c-0.3-0.3-0.6-0.7-0.8-1.1
				c-0.2-0.4-0.3-1-0.3-1.5c0-0.9,0.2-1.6,0.7-2.1c0.5-0.5,1.1-0.9,1.7-1.2s1.4-0.4,2.2-0.5s1.5-0.1,2.2-0.1v-0.2
				c0-0.8-0.2-1.3-0.4-1.7c-0.3-0.4-0.8-0.6-1.6-0.6c-0.4,0-0.8,0-1.2,0.1c-0.4,0.1-0.7,0.2-1,0.3c-0.4,0.1-0.7,0.2-1,0.4L98,13
				c0.5-0.2,0.9-0.4,1.5-0.6c0.4-0.2,0.9-0.3,1.4-0.4c0.5-0.1,1.1-0.2,1.6-0.2c1.3,0,2.4,0.4,3.1,1.1c0.7,0.7,1.1,1.8,1.1,3.1v7.8
				L104.2,23.7L104.2,23.7z"/>
			<rect x="69.5" y="5.9" class="st2" width="2.9" height="17.8"/>
			<path class="st2" d="M54.9,14.9H49v2.4H52v3.8c-0.2,0-0.4,0.1-0.6,0.1c-0.2,0-0.4,0.1-0.6,0.1c-0.3,0-0.5,0-0.8,0
				c-0.8,0-1.5-0.1-2.1-0.4c-0.6-0.3-1.2-0.7-1.6-1.2s-0.8-1.1-1.1-1.8c-0.3-0.7-0.4-1.5-0.4-2.3c0-0.9,0.2-1.7,0.5-2.4
				c0.3-0.7,0.7-1.4,1.2-1.9c0.5-0.5,1.2-0.9,1.9-1.2c0.7-0.3,1.5-0.4,2.3-0.4c0.4,0,0.8,0,1.2,0.1c0.4,0,0.7,0.1,1,0.1
				c0.3,0.1,0.6,0.1,0.9,0.2l0.8-2.3c-0.4-0.1-0.8-0.2-1.2-0.3c-0.4-0.1-0.9-0.2-1.4-0.2C51.3,7,50.6,7,50,7c-1.1,0-2.2,0.2-3.3,0.6
				c-1,0.4-1.9,1-2.7,1.7c-0.8,0.7-1.4,1.6-1.8,2.7c-0.4,1.1-0.7,2.2-0.7,3.5c0,1.3,0.2,2.5,0.6,3.5c0.4,1.1,1,1.9,1.7,2.7
				c0.7,0.7,1.5,1.3,2.5,1.7c1,0.4,2,0.6,3.1,0.6c0.7,0,1.3-0.1,2-0.2c0.7-0.1,1.3-0.3,1.8-0.4c0.6-0.2,1.2-0.4,1.7-0.6L54.9,14.9z"
				/>
			<path class="st2" d="M90.1,22.6c-0.4,0.3-0.9,0.5-1.3,0.7c-0.4,0.2-0.9,0.3-1.5,0.5c-0.5,0.1-1.1,0.2-1.7,0.2
				c-0.7,0-1.3-0.1-1.9-0.4c-0.6-0.3-1.1-0.7-1.6-1.1c-0.5-0.5-0.8-1.1-1.1-1.8c-0.3-0.7-0.4-1.5-0.4-2.3c0-0.9,0.2-1.7,0.4-2.5
				c0.3-0.8,0.7-1.5,1.2-2.1c0.5-0.6,1.2-1.1,1.9-1.4c0.7-0.4,1.5-0.5,2.4-0.5c0.4,0,0.8,0,1.2,0.1s0.7,0.1,1,0.2
				c0.3,0.1,0.7,0.2,1,0.3l-0.8,2l-0.5-0.1c-0.1,0-0.3-0.1-0.5-0.1c-0.2,0-0.5-0.1-0.7-0.1c-0.5,0-1.1,0.1-1.6,0.3
				c-0.4,0.2-0.8,0.5-1.2,0.8c-0.3,0.4-0.6,0.8-0.8,1.3c-0.2,0.5-0.3,1-0.3,1.6c0,1,0.3,1.9,0.8,2.5c0.6,0.6,1.3,0.9,2.2,0.9
				c0.3,0,0.8,0,1.1-0.1c0.3,0,0.6-0.1,0.8-0.2c0.3-0.1,0.5-0.1,0.8-0.3L90.1,22.6z"/>
			<path class="st2" d="M19.3,7.7L19.3,7.7c0,0-0.2,0.2-0.8,0.3c-0.6,0.2-1.7,0.4-3.3,0.4c0-1.6,0.3-2.7,0.4-3.3
				C15.8,4.7,16,4.5,16,4.4v0l0,0l0,0c0-0.6-0.5-1.1-1.1-1.1c-0.6,0-1.1,0.5-1.1,1.1l0,0h0c0,0,0,0,0,0c0,0.1,0.2,0.3,0.3,0.8
				c0.2,0.6,0.4,1.7,0.4,3.3c-1.6,0-2.7-0.3-3.3-0.4c-0.6-0.2-0.8-0.3-0.8-0.3v0l0,0c-0.6,0-1.1,0.5-1.1,1.1c0,0.6,0.5,1.1,1.1,1.1
				h0l0,0c0,0,0.2-0.1,0.8-0.3c0.6-0.2,1.7-0.4,3.3-0.4c-0.1,1.8-0.4,2.8-0.6,3.3c-0.1,0.3-0.4,0.8-0.9,0.9l0,0l1.9,13.3l1.8-13.3
				l0,0c-0.5-0.1-0.8-0.7-0.9-1c0,0,0,0,0-0.1c-0.2-0.5-0.5-1.5-0.6-3.2c1.6,0,2.6,0.3,3.3,0.4c0.6,0.2,0.8,0.3,0.8,0.3l0,0
				c0.6,0,1.1-0.5,1.1-1.1C20.5,8.2,19.9,7.7,19.3,7.7"/>
		</g>
	</g>
</g>
</svg>
